STARTFONT 2.1
COMMENT
COMMENT Converted from OpenType font "CircularStd-Book.otf" by "otf2bdf 3.0".
COMMENT
FONT -FreeType-Circular Std Book-Medium-R-Normal--24-170-100-100-P-118-ISO10646-1
SIZE 17 100 100
FONTBOUNDINGBOX 36 26 -1 -5
STARTPROPERTIES 19
FOUNDRY "FreeType"
FAMILY_NAME "Circular Std Book"
WEIGHT_NAME "Medium"
SLANT "R"
SETWIDTH_NAME "Normal"
ADD_STYLE_NAME ""
PIXEL_SIZE 24
POINT_SIZE 170
RESOLUTION_X 100
RESOLUTION_Y 100
SPACING "P"
AVERAGE_WIDTH 118
CHARSET_REGISTRY "ISO10646"
CHARSET_ENCODING "1"
FONT_ASCENT 23
FONT_DESCENT 6
COPYRIGHT "Generated in 2013 by FontLab Studio. Copyright info pending."
_OTF_FONTFILE "CircularStd-Book.otf"
_OTF_PSNAME "CircularStd-Book"
ENDPROPERTIES
CHARS 332
STARTCHAR 0000
ENCODING 0
SWIDTH 0 0
DWIDTH 0 0
BBX 0 0 0 0
BITMAP
ENDCHAR
STARTCHAR 000D
ENCODING 13
SWIDTH 254 0
DWIDTH 6 0
BBX 0 0 0 0
BITMAP
ENDCHAR
STARTCHAR 0020
ENCODING 32
SWIDTH 254 0
DWIDTH 6 0
BBX 0 0 0 0
BITMAP
ENDCHAR
STARTCHAR 0021
ENCODING 33
SWIDTH 296 0
DWIDTH 7 0
BBX 3 17 2 0
BITMAP
E0
E0
E0
E0
E0
60
60
60
60
60
60
40
00
00
E0
E0
60
ENDCHAR
STARTCHAR 0022
ENCODING 34
SWIDTH 381 0
DWIDTH 9 0
BBX 7 6 1 10
BITMAP
EE
EE
EE
CC
44
44
ENDCHAR
STARTCHAR 0023
ENCODING 35
SWIDTH 720 0
DWIDTH 17 0
BBX 15 16 1 0
BITMAP
0618
0618
0630
0630
7FFE
7FFE
0C30
0C60
0C60
0C60
FFFC
FFFC
18C0
18C0
18C0
30C0
ENDCHAR
STARTCHAR 0024
ENCODING 36
SWIDTH 592 0
DWIDTH 14 0
BBX 12 21 1 -3
BITMAP
0600
0600
0600
1FC0
3FE0
7660
6660
6600
7600
3E00
1FC0
07E0
0660
6670
E670
7660
7FE0
3FC0
0600
0600
0600
ENDCHAR
STARTCHAR 0025
ENCODING 37
SWIDTH 804 0
DWIDTH 19 0
BBX 17 16 1 0
BITMAP
3C0600
7E0C00
671C00
C31800
C33000
677000
7E6000
3CC000
018E00
019F00
033180
063180
063180
0C3180
183F00
180E00
ENDCHAR
STARTCHAR 0026
ENCODING 38
SWIDTH 677 0
DWIDTH 16 0
BBX 14 17 2 0
BITMAP
1E00
3F00
6380
6180
6180
6380
7700
3E00
3C08
7E18
E738
C3F0
C1E0
C1E0
E3F0
7F38
3E1C
ENDCHAR
STARTCHAR 0027
ENCODING 39
SWIDTH 211 0
DWIDTH 5 0
BBX 3 6 1 10
BITMAP
E0
E0
E0
C0
40
40
ENDCHAR
STARTCHAR 0028
ENCODING 40
SWIDTH 296 0
DWIDTH 7 0
BBX 6 23 1 -4
BITMAP
08
0C
18
30
30
60
60
60
40
C0
C0
C0
C0
C0
60
60
60
60
30
30
18
1C
08
ENDCHAR
STARTCHAR 0029
ENCODING 41
SWIDTH 296 0
DWIDTH 7 0
BBX 6 23 0 -4
BITMAP
40
E0
60
30
30
18
18
18
0C
0C
0C
0C
0C
0C
0C
18
18
18
30
30
60
E0
40
ENDCHAR
STARTCHAR 002A
ENCODING 42
SWIDTH 423 0
DWIDTH 10 0
BBX 8 9 1 8
BITMAP
18
18
98
FF
7F
1C
3E
66
22
ENDCHAR
STARTCHAR 002B
ENCODING 43
SWIDTH 550 0
DWIDTH 13 0
BBX 11 11 1 1
BITMAP
0600
0600
0600
0600
FFE0
FFE0
0600
0600
0600
0600
0600
ENDCHAR
STARTCHAR 002C
ENCODING 44
SWIDTH 296 0
DWIDTH 7 0
BBX 3 7 2 -4
BITMAP
E0
E0
E0
20
60
C0
80
ENDCHAR
STARTCHAR 002D
ENCODING 45
SWIDTH 381 0
DWIDTH 9 0
BBX 6 2 1 6
BITMAP
FC
FC
ENDCHAR
STARTCHAR 002E
ENCODING 46
SWIDTH 296 0
DWIDTH 7 0
BBX 3 3 2 0
BITMAP
E0
E0
C0
ENDCHAR
STARTCHAR 002F
ENCODING 47
SWIDTH 423 0
DWIDTH 10 0
BBX 10 17 0 0
BITMAP
00C0
01C0
0180
0380
0300
0700
0600
0600
0C00
0C00
1800
1800
3000
3000
6000
6000
C000
ENDCHAR
STARTCHAR 0030
ENCODING 48
SWIDTH 635 0
DWIDTH 15 0
BBX 12 16 1 0
BITMAP
0F80
3FC0
38E0
6070
6030
E030
E030
E030
E030
E030
E030
6030
6070
38E0
3FC0
0F80
ENDCHAR
STARTCHAR 0031
ENCODING 49
SWIDTH 338 0
DWIDTH 8 0
BBX 6 16 1 0
BITMAP
1C
1C
3C
FC
FC
1C
1C
1C
1C
1C
1C
1C
1C
1C
1C
1C
ENDCHAR
STARTCHAR 0032
ENCODING 50
SWIDTH 508 0
DWIDTH 12 0
BBX 11 16 1 0
BITMAP
1F00
7F80
71C0
E0C0
C0C0
C0C0
00C0
01C0
0780
0F00
1C00
3800
6000
E000
FFE0
FFE0
ENDCHAR
STARTCHAR 0033
ENCODING 51
SWIDTH 550 0
DWIDTH 13 0
BBX 11 16 1 0
BITMAP
FFE0
FFE0
01C0
0380
0700
0E00
1F00
0FC0
01E0
00E0
0060
C060
E0E0
71C0
7FC0
1F00
ENDCHAR
STARTCHAR 0034
ENCODING 52
SWIDTH 592 0
DWIDTH 14 0
BBX 12 16 1 0
BITMAP
03C0
07C0
07C0
0DC0
1DC0
19C0
31C0
71C0
E1C0
C1C0
FFF0
FFF0
01C0
01C0
01C0
01C0
ENDCHAR
STARTCHAR 0035
ENCODING 53
SWIDTH 550 0
DWIDTH 13 0
BBX 11 16 1 0
BITMAP
3FC0
3FC0
3000
3000
6000
6000
6F00
7FC0
61E0
00E0
0060
C060
E0E0
F1C0
7FC0
1F00
ENDCHAR
STARTCHAR 0036
ENCODING 54
SWIDTH 592 0
DWIDTH 14 0
BBX 12 16 1 0
BITMAP
07E0
0FE0
3C20
3000
7000
6000
6F80
FFE0
F0E0
E070
E070
E070
6070
70E0
3FC0
0F80
ENDCHAR
STARTCHAR 0037
ENCODING 55
SWIDTH 465 0
DWIDTH 11 0
BBX 11 16 0 0
BITMAP
FFE0
FFE0
00E0
01C0
0180
0300
0700
0600
0E00
0C00
0C00
1C00
1800
1800
1800
3800
ENDCHAR
STARTCHAR 0038
ENCODING 56
SWIDTH 550 0
DWIDTH 13 0
BBX 11 16 1 0
BITMAP
1F00
3FC0
71C0
60E0
E0E0
60E0
71C0
3F80
3F80
60C0
E060
C060
E060
F0E0
7FC0
1F00
ENDCHAR
STARTCHAR 0039
ENCODING 57
SWIDTH 592 0
DWIDTH 14 0
BBX 12 16 1 0
BITMAP
1F00
3FC0
71C0
E0E0
C060
C070
E070
70F0
7FE0
1F60
0060
00E0
00C0
43C0
7F80
7E00
ENDCHAR
STARTCHAR 003A
ENCODING 58
SWIDTH 296 0
DWIDTH 7 0
BBX 3 12 2 0
BITMAP
E0
E0
E0
00
00
00
00
00
00
E0
E0
E0
ENDCHAR
STARTCHAR 003B
ENCODING 59
SWIDTH 296 0
DWIDTH 7 0
BBX 3 15 2 -3
BITMAP
E0
E0
E0
00
00
00
00
00
00
E0
E0
E0
20
60
C0
ENDCHAR
STARTCHAR 003C
ENCODING 60
SWIDTH 465 0
DWIDTH 11 0
BBX 10 12 1 1
BITMAP
0040
01C0
0780
1E00
7800
E000
E000
7800
1E00
0780
01C0
0040
ENDCHAR
STARTCHAR 003D
ENCODING 61
SWIDTH 592 0
DWIDTH 14 0
BBX 10 7 2 3
BITMAP
FFC0
FFC0
0000
0000
0000
FFC0
FFC0
ENDCHAR
STARTCHAR 003E
ENCODING 62
SWIDTH 465 0
DWIDTH 11 0
BBX 10 12 1 1
BITMAP
8000
E000
F800
3E00
0F80
03C0
03C0
0F80
3E00
F800
E000
8000
ENDCHAR
STARTCHAR 003F
ENCODING 63
SWIDTH 508 0
DWIDTH 12 0
BBX 10 17 1 0
BITMAP
1E00
7F80
E1C0
C0C0
C0C0
C0C0
01C0
0380
0700
0E00
0C00
0C00
0000
0000
1C00
1C00
1C00
ENDCHAR
STARTCHAR 0040
ENCODING 64
SWIDTH 847 0
DWIDTH 20 0
BBX 18 18 1 -1
BITMAP
03F000
0FFC00
1C0700
300380
60C180
63FD80
C718C0
C618C0
C618C0
CC1880
CE1180
C63B80
67FF00
618400
300000
1C0600
0FFE00
03F000
ENDCHAR
STARTCHAR 0041
ENCODING 65
SWIDTH 677 0
DWIDTH 16 0
BBX 16 17 0 0
BITMAP
01C0
03C0
03E0
0360
0660
0670
0E30
0C30
0C38
1818
1FFC
3FFC
300C
300E
7006
6007
E007
ENDCHAR
STARTCHAR 0042
ENCODING 66
SWIDTH 592 0
DWIDTH 14 0
BBX 11 17 2 0
BITMAP
FF00
FFC0
C1C0
C0E0
C0E0
C0C0
C1C0
FF80
FFC0
C0C0
C0E0
C060
C060
C0E0
C0E0
FFC0
FF00
ENDCHAR
STARTCHAR 0043
ENCODING 67
SWIDTH 762 0
DWIDTH 18 0
BBX 16 17 1 0
BITMAP
03E0
0FF8
3C1C
380E
7007
6006
E000
C000
C000
E000
E000
6002
7006
780E
3C1C
1FF8
07E0
ENDCHAR
STARTCHAR 0044
ENCODING 68
SWIDTH 720 0
DWIDTH 17 0
BBX 14 17 2 0
BITMAP
FF80
FFE0
C0F0
C038
C018
C01C
C01C
C01C
C00C
C00C
C01C
C01C
C018
C038
C0F0
FFE0
FF80
ENDCHAR
STARTCHAR 0045
ENCODING 69
SWIDTH 592 0
DWIDTH 14 0
BBX 10 17 2 0
BITMAP
FFC0
FFC0
C000
C000
C000
C000
C000
C000
FFC0
FFC0
C000
C000
C000
C000
C000
FFC0
FFC0
ENDCHAR
STARTCHAR 0046
ENCODING 70
SWIDTH 550 0
DWIDTH 13 0
BBX 10 17 2 0
BITMAP
FFC0
FFC0
C000
C000
C000
C000
C000
C000
FFC0
FFC0
C000
C000
C000
C000
C000
C000
C000
ENDCHAR
STARTCHAR 0047
ENCODING 71
SWIDTH 762 0
DWIDTH 18 0
BBX 16 17 1 0
BITMAP
03E0
0FF8
3C3C
380E
7007
6006
E000
E000
C000
C0FF
E0FF
E007
7007
700F
3C1B
1FFB
07E3
ENDCHAR
STARTCHAR 0048
ENCODING 72
SWIDTH 720 0
DWIDTH 17 0
BBX 13 17 2 0
BITMAP
C018
C018
C018
C018
C018
C018
C018
FFF8
FFF8
C018
C018
C018
C018
C018
C018
C018
C018
ENDCHAR
STARTCHAR 0049
ENCODING 73
SWIDTH 296 0
DWIDTH 7 0
BBX 2 17 2 0
BITMAP
C0
C0
C0
C0
C0
C0
C0
C0
C0
C0
C0
C0
C0
C0
C0
C0
C0
ENDCHAR
STARTCHAR 004A
ENCODING 74
SWIDTH 550 0
DWIDTH 13 0
BBX 11 17 0 0
BITMAP
00E0
00E0
00E0
00E0
00E0
00E0
00E0
00E0
00E0
00E0
60E0
E0E0
60E0
60C0
71C0
3F80
1F00
ENDCHAR
STARTCHAR 004B
ENCODING 75
SWIDTH 677 0
DWIDTH 16 0
BBX 13 17 2 0
BITMAP
C038
C070
C0E0
C1C0
C380
C700
CE00
CC00
DE00
FF00
F380
E380
C1C0
C0E0
C070
C070
C038
ENDCHAR
STARTCHAR 004C
ENCODING 76
SWIDTH 550 0
DWIDTH 13 0
BBX 10 17 2 0
BITMAP
C000
C000
C000
C000
C000
C000
C000
C000
C000
C000
C000
C000
C000
C000
C000
FFC0
FFC0
ENDCHAR
STARTCHAR 004D
ENCODING 77
SWIDTH 931 0
DWIDTH 22 0
BBX 18 17 2 0
BITMAP
E001C0
F003C0
F003C0
F803C0
D807C0
DC06C0
CC0EC0
CC0CC0
CE1CC0
C618C0
C718C0
C338C0
C3B0C0
C1F0C0
C1E0C0
C1E0C0
C0C0C0
ENDCHAR
STARTCHAR 004E
ENCODING 78
SWIDTH 762 0
DWIDTH 18 0
BBX 14 17 2 0
BITMAP
F00C
F00C
F80C
D80C
DC0C
CE0C
C60C
C70C
C38C
C18C
C1CC
C0EC
C06C
C07C
C03C
C03C
C01C
ENDCHAR
STARTCHAR 004F
ENCODING 79
SWIDTH 804 0
DWIDTH 19 0
BBX 17 17 1 0
BITMAP
03E000
0FF800
3C3E00
380E00
700700
600300
E00380
C00380
C00380
E00380
E00380
600300
700700
380E00
3C1E00
0FF800
03E000
ENDCHAR
STARTCHAR 0050
ENCODING 80
SWIDTH 592 0
DWIDTH 14 0
BBX 11 17 2 0
BITMAP
FF80
FFC0
C0E0
C060
C060
C060
C060
C0E0
FFC0
FF80
C000
C000
C000
C000
C000
C000
C000
ENDCHAR
STARTCHAR 0051
ENCODING 81
SWIDTH 804 0
DWIDTH 19 0
BBX 17 18 1 -1
BITMAP
03E000
0FF800
3C3E00
380E00
700700
600300
E00380
C00380
C00380
E00380
E06380
607300
703F00
381E00
3C1E00
0FFE00
03E700
000200
ENDCHAR
STARTCHAR 0052
ENCODING 82
SWIDTH 635 0
DWIDTH 15 0
BBX 12 17 2 0
BITMAP
FF80
FFC0
C0E0
C060
C070
C070
C060
C0E0
FFC0
FF80
C700
C300
C380
C1C0
C1C0
C0E0
C060
ENDCHAR
STARTCHAR 0053
ENCODING 83
SWIDTH 592 0
DWIDTH 14 0
BBX 12 17 1 0
BITMAP
0F80
3FC0
70E0
6070
6020
6000
7000
7E00
1FC0
03E0
0070
0070
C030
E070
70E0
3FC0
1F80
ENDCHAR
STARTCHAR 0054
ENCODING 84
SWIDTH 592 0
DWIDTH 14 0
BBX 14 17 0 0
BITMAP
FFFC
FFFC
0300
0300
0300
0300
0300
0300
0300
0300
0300
0300
0300
0300
0300
0300
0300
ENDCHAR
STARTCHAR 0055
ENCODING 85
SWIDTH 677 0
DWIDTH 16 0
BBX 12 17 2 0
BITMAP
C030
C030
C030
C030
C030
C030
C030
C030
C030
C030
C030
C030
C070
E060
70E0
3FC0
1F80
ENDCHAR
STARTCHAR 0056
ENCODING 86
SWIDTH 677 0
DWIDTH 16 0
BBX 15 17 0 0
BITMAP
E006
600E
700C
300C
301C
3818
1838
1830
1C30
0C70
0C60
0E60
06E0
07C0
03C0
0380
0380
ENDCHAR
STARTCHAR 0057
ENCODING 87
SWIDTH 1016 0
DWIDTH 24 0
BBX 23 17 0 0
BITMAP
E03806
603C06
603C0E
703C0C
306E0C
30661C
38661C
38C618
18C718
18C338
1DC330
0D83B0
0D81B0
0F81F0
0F01E0
0700E0
0700E0
ENDCHAR
STARTCHAR 0058
ENCODING 88
SWIDTH 635 0
DWIDTH 15 0
BBX 13 17 1 0
BITMAP
C038
E030
7070
30E0
38C0
1DC0
0F80
0F00
0700
0F00
0F80
1DC0
38C0
30E0
7070
E030
C038
ENDCHAR
STARTCHAR 0059
ENCODING 89
SWIDTH 635 0
DWIDTH 15 0
BBX 13 17 1 0
BITMAP
C038
E030
6070
7060
38E0
18C0
1D80
0F80
0F00
0700
0600
0600
0600
0600
0600
0600
0600
ENDCHAR
STARTCHAR 005A
ENCODING 90
SWIDTH 635 0
DWIDTH 15 0
BBX 13 17 1 0
BITMAP
FFF8
FFF8
0038
0070
00E0
01C0
0180
0380
0700
0E00
1C00
1800
3800
7000
E000
FFF8
FFF8
ENDCHAR
STARTCHAR 005B
ENCODING 91
SWIDTH 296 0
DWIDTH 7 0
BBX 5 23 2 -4
BITMAP
F8
F8
C0
C0
C0
C0
C0
C0
C0
C0
C0
C0
C0
C0
C0
C0
C0
C0
C0
C0
C0
F8
F8
ENDCHAR
STARTCHAR 005C
ENCODING 92
SWIDTH 423 0
DWIDTH 10 0
BBX 10 17 0 0
BITMAP
C000
6000
6000
3000
3000
1800
1800
0C00
0C00
0E00
0600
0700
0300
0380
0180
01C0
00C0
ENDCHAR
STARTCHAR 005D
ENCODING 93
SWIDTH 296 0
DWIDTH 7 0
BBX 5 23 0 -4
BITMAP
F8
F8
18
18
18
18
18
18
18
18
18
18
18
18
18
18
18
18
18
18
18
F8
F8
ENDCHAR
STARTCHAR 005E
ENCODING 94
SWIDTH 508 0
DWIDTH 12 0
BBX 10 9 1 8
BITMAP
0C00
1E00
1E00
3B00
3300
7180
6180
E0C0
C0C0
ENDCHAR
STARTCHAR 005F
ENCODING 95
SWIDTH 550 0
DWIDTH 13 0
BBX 12 2 0 -2
BITMAP
FFF0
FFF0
ENDCHAR
STARTCHAR 0060
ENCODING 96
SWIDTH 254 0
DWIDTH 6 0
BBX 4 3 1 13
BITMAP
E0
70
30
ENDCHAR
STARTCHAR 0061
ENCODING 97
SWIDTH 508 0
DWIDTH 12 0
BBX 10 12 1 0
BITMAP
1F00
7F80
61C0
E0C0
01C0
1FC0
7CC0
E0C0
C1C0
E1C0
7EC0
3CC0
ENDCHAR
STARTCHAR 0062
ENCODING 98
SWIDTH 592 0
DWIDTH 14 0
BBX 11 17 2 0
BITMAP
C000
C000
C000
C000
C000
CF00
FFC0
F1C0
E0E0
C060
C060
C060
C060
E0E0
E0C0
FF80
DF00
ENDCHAR
STARTCHAR 0063
ENCODING 99
SWIDTH 550 0
DWIDTH 13 0
BBX 11 12 1 0
BITMAP
1F00
3FC0
71C0
E0E0
C000
C000
C000
C000
E0E0
70C0
3FC0
1F00
ENDCHAR
STARTCHAR 0064
ENCODING 100
SWIDTH 592 0
DWIDTH 14 0
BBX 11 17 1 0
BITMAP
0060
0060
0060
0060
0060
1E60
3FE0
71E0
E0E0
C060
C060
C060
C060
E0E0
60E0
3FE0
1E60
ENDCHAR
STARTCHAR 0065
ENCODING 101
SWIDTH 550 0
DWIDTH 13 0
BBX 11 12 1 0
BITMAP
1F00
3F80
71C0
60C0
C0E0
FFE0
FFE0
C000
E060
70C0
3FC0
1F00
ENDCHAR
STARTCHAR 0066
ENCODING 102
SWIDTH 338 0
DWIDTH 8 0
BBX 8 18 0 0
BITMAP
0F
1F
18
18
18
18
FF
FF
18
18
18
18
18
18
18
18
18
18
ENDCHAR
STARTCHAR 0067
ENCODING 103
SWIDTH 592 0
DWIDTH 14 0
BBX 11 17 1 -5
BITMAP
1F60
3FE0
70E0
E0E0
C060
C060
C060
E0E0
70E0
3FE0
1E60
0060
C060
E0E0
71C0
7F80
1F00
ENDCHAR
STARTCHAR 0068
ENCODING 104
SWIDTH 550 0
DWIDTH 13 0
BBX 10 17 2 0
BITMAP
C000
C000
C000
C000
C000
DF00
FF80
E380
C1C0
C1C0
C1C0
C1C0
C1C0
C1C0
C1C0
C1C0
C1C0
ENDCHAR
STARTCHAR 0069
ENCODING 105
SWIDTH 254 0
DWIDTH 6 0
BBX 4 18 1 0
BITMAP
60
F0
60
00
00
00
60
60
60
60
60
60
60
60
60
60
60
60
ENDCHAR
STARTCHAR 006A
ENCODING 106
SWIDTH 254 0
DWIDTH 6 0
BBX 5 23 0 -5
BITMAP
30
78
30
00
00
00
30
30
30
30
30
30
30
30
30
30
30
30
30
30
30
F0
E0
ENDCHAR
STARTCHAR 006B
ENCODING 107
SWIDTH 508 0
DWIDTH 12 0
BBX 10 17 2 0
BITMAP
C000
C000
C000
C000
C000
C1C0
C380
C700
CE00
DC00
FC00
FC00
EE00
C700
C300
C380
C1C0
ENDCHAR
STARTCHAR 006C
ENCODING 108
SWIDTH 254 0
DWIDTH 6 0
BBX 2 17 2 0
BITMAP
C0
C0
C0
C0
C0
C0
C0
C0
C0
C0
C0
C0
C0
C0
C0
C0
C0
ENDCHAR
STARTCHAR 006D
ENCODING 109
SWIDTH 847 0
DWIDTH 20 0
BBX 17 12 2 0
BITMAP
DE1E00
FFFF00
E1C300
C1C380
C18380
C18380
C18380
C18380
C18380
C18380
C18380
C18380
ENDCHAR
STARTCHAR 006E
ENCODING 110
SWIDTH 550 0
DWIDTH 13 0
BBX 10 12 2 0
BITMAP
CF00
FF80
E380
C1C0
C1C0
C1C0
C1C0
C1C0
C1C0
C1C0
C1C0
C1C0
ENDCHAR
STARTCHAR 006F
ENCODING 111
SWIDTH 592 0
DWIDTH 14 0
BBX 12 12 1 0
BITMAP
1F00
3FC0
70E0
E060
C060
C070
C070
C060
E060
70E0
3FC0
1F00
ENDCHAR
STARTCHAR 0070
ENCODING 112
SWIDTH 592 0
DWIDTH 14 0
BBX 11 17 2 -5
BITMAP
CF00
FFC0
F1C0
E0E0
C060
C060
C060
C060
E0E0
F1C0
FF80
CF00
C000
C000
C000
C000
C000
ENDCHAR
STARTCHAR 0071
ENCODING 113
SWIDTH 592 0
DWIDTH 14 0
BBX 11 17 1 -5
BITMAP
1E60
3FE0
71E0
E0E0
C060
C060
C060
C060
E0E0
71E0
3FE0
1E60
0060
0060
0060
0060
0060
ENDCHAR
STARTCHAR 0072
ENCODING 114
SWIDTH 381 0
DWIDTH 9 0
BBX 6 12 2 0
BITMAP
CC
FC
F0
E0
C0
C0
C0
C0
C0
C0
C0
C0
ENDCHAR
STARTCHAR 0073
ENCODING 115
SWIDTH 465 0
DWIDTH 11 0
BBX 9 12 1 0
BITMAP
3E00
7F00
E300
C000
E000
7C00
3F00
0300
C380
E300
7F00
3E00
ENDCHAR
STARTCHAR 0074
ENCODING 116
SWIDTH 338 0
DWIDTH 8 0
BBX 7 16 0 0
BITMAP
18
18
18
38
FE
FE
18
18
18
18
18
18
18
18
1E
0E
ENDCHAR
STARTCHAR 0075
ENCODING 117
SWIDTH 550 0
DWIDTH 13 0
BBX 10 12 2 0
BITMAP
C180
C180
C180
C180
C180
C180
C180
C180
C180
E180
7FC0
3DC0
ENDCHAR
STARTCHAR 0076
ENCODING 118
SWIDTH 508 0
DWIDTH 12 0
BBX 11 12 0 0
BITMAP
E060
6060
70E0
30C0
30C0
39C0
1980
1980
1F00
0F00
0F00
0600
ENDCHAR
STARTCHAR 0077
ENCODING 119
SWIDTH 804 0
DWIDTH 19 0
BBX 18 12 0 0
BITMAP
E0E0C0
60E0C0
61E1C0
71B180
31B180
33B380
3B1B00
1B1B00
1B1B00
1E0E00
0E0E00
0E0E00
ENDCHAR
STARTCHAR 0078
ENCODING 120
SWIDTH 508 0
DWIDTH 12 0
BBX 10 12 1 0
BITMAP
C1C0
E180
7300
3700
3E00
1C00
1E00
3E00
3700
7380
E180
C1C0
ENDCHAR
STARTCHAR 0079
ENCODING 121
SWIDTH 508 0
DWIDTH 12 0
BBX 12 17 0 -5
BITMAP
E030
6060
7060
30E0
38C0
19C0
1D80
0D80
0F00
0700
0700
0600
0E00
0C00
1C00
1800
3800
ENDCHAR
STARTCHAR 007A
ENCODING 122
SWIDTH 465 0
DWIDTH 11 0
BBX 9 12 1 0
BITMAP
FF80
FF80
0380
0700
0E00
1C00
1800
3800
7000
E000
FF80
FF80
ENDCHAR
STARTCHAR 007B
ENCODING 123
SWIDTH 338 0
DWIDTH 8 0
BBX 7 23 1 -4
BITMAP
06
0E
18
18
18
18
18
18
18
30
E0
E0
30
38
18
18
18
18
18
18
18
0E
06
ENDCHAR
STARTCHAR 007C
ENCODING 124
SWIDTH 254 0
DWIDTH 6 0
BBX 2 22 2 -3
BITMAP
C0
C0
C0
C0
C0
C0
C0
C0
C0
C0
C0
C0
C0
C0
C0
C0
C0
C0
C0
C0
C0
C0
ENDCHAR
STARTCHAR 007D
ENCODING 125
SWIDTH 338 0
DWIDTH 8 0
BBX 7 23 0 -4
BITMAP
C0
F0
30
18
18
18
18
18
18
1C
0E
0E
1C
18
18
18
18
18
18
18
30
F0
C0
ENDCHAR
STARTCHAR 007E
ENCODING 126
SWIDTH 550 0
DWIDTH 13 0
BBX 11 4 1 5
BITMAP
3800
FC20
C7E0
03C0
ENDCHAR
STARTCHAR 00A0
ENCODING 160
SWIDTH 254 0
DWIDTH 6 0
BBX 0 0 0 0
BITMAP
ENDCHAR
STARTCHAR 00A1
ENCODING 161
SWIDTH 296 0
DWIDTH 7 0
BBX 3 17 2 -5
BITMAP
C0
E0
C0
00
00
C0
C0
C0
C0
C0
C0
C0
C0
C0
E0
E0
E0
ENDCHAR
STARTCHAR 00A2
ENCODING 162
SWIDTH 550 0
DWIDTH 13 0
BBX 11 16 1 0
BITMAP
0400
0400
0F00
3F80
75C0
64E0
E400
C400
C400
E400
64E0
75C0
3F80
0E00
0400
0400
ENDCHAR
STARTCHAR 00A3
ENCODING 163
SWIDTH 592 0
DWIDTH 14 0
BBX 11 16 2 0
BITMAP
1F00
3F80
71C0
60C0
6000
6000
7000
FF00
FF00
3000
3000
3060
7060
E0E0
FFE0
FF80
ENDCHAR
STARTCHAR 00A4
ENCODING 164
SWIDTH 592 0
DWIDTH 14 0
BBX 12 12 1 0
BITMAP
4020
EF70
7FE0
30C0
6060
6060
6060
6060
30C0
7FE0
EF70
4020
ENDCHAR
STARTCHAR 00A5
ENCODING 165
SWIDTH 592 0
DWIDTH 14 0
BBX 12 16 1 0
BITMAP
E070
E060
70E0
30C0
39C0
1980
1F80
7FE0
7FE0
0600
7FE0
7FE0
0600
0600
0600
0600
ENDCHAR
STARTCHAR 00A6
ENCODING 166
SWIDTH 254 0
DWIDTH 6 0
BBX 2 22 2 -3
BITMAP
C0
C0
C0
C0
C0
C0
C0
C0
C0
00
00
00
00
C0
C0
C0
C0
C0
C0
C0
C0
C0
ENDCHAR
STARTCHAR 00A7
ENCODING 167
SWIDTH 592 0
DWIDTH 14 0
BBX 10 22 2 -5
BITMAP
1E00
7F80
E180
C180
C180
E000
7000
3C00
6F00
C780
C180
E180
7180
3F80
1F00
0780
0180
41C0
C180
E180
7F00
3E00
ENDCHAR
STARTCHAR 00A8
ENCODING 168
SWIDTH 381 0
DWIDTH 9 0
BBX 7 3 1 13
BITMAP
C6
EE
C6
ENDCHAR
STARTCHAR 00A9
ENCODING 169
SWIDTH 804 0
DWIDTH 19 0
BBX 17 17 1 0
BITMAP
03F000
0FFC00
180E00
30C700
63F300
663980
CC1180
CC0180
CC0180
CC0180
C61980
67F180
61E300
300700
1C0E00
0FFC00
03F000
ENDCHAR
STARTCHAR 00AA
ENCODING 170
SWIDTH 423 0
DWIDTH 10 0
BBX 6 8 2 8
BITMAP
78
FC
84
1C
FC
84
CC
F4
ENDCHAR
STARTCHAR 00AB
ENCODING 171
SWIDTH 465 0
DWIDTH 11 0
BBX 9 10 1 2
BITMAP
1980
3380
6300
6600
C600
C600
6600
6300
3380
1980
ENDCHAR
STARTCHAR 00AC
ENCODING 172
SWIDTH 592 0
DWIDTH 14 0
BBX 11 6 1 4
BITMAP
FFE0
FFE0
0060
0060
0060
0060
ENDCHAR
STARTCHAR 00AD
ENCODING 173
SWIDTH 381 0
DWIDTH 9 0
BBX 6 2 1 6
BITMAP
FC
FC
ENDCHAR
STARTCHAR 00AE
ENCODING 174
SWIDTH 804 0
DWIDTH 19 0
BBX 17 17 1 0
BITMAP
03F000
0FFC00
1C0E00
300700
63E300
63F180
C33180
C33180
C3F180
C3C180
C36180
636180
633300
300700
1C0E00
0FFC00
03F000
ENDCHAR
STARTCHAR 00AF
ENCODING 175
SWIDTH 338 0
DWIDTH 8 0
BBX 6 2 1 14
BITMAP
FC
FC
ENDCHAR
STARTCHAR 00B0
ENCODING 176
SWIDTH 381 0
DWIDTH 9 0
BBX 7 8 1 8
BITMAP
38
FC
C6
C6
C6
C6
FC
38
ENDCHAR
STARTCHAR 00B1
ENCODING 177
SWIDTH 550 0
DWIDTH 13 0
BBX 10 11 2 1
BITMAP
0C00
0C00
0C00
FFC0
FFC0
0C00
0C00
0C00
0000
FFC0
FFC0
ENDCHAR
STARTCHAR 00B2
ENCODING 178
SWIDTH 381 0
DWIDTH 9 0
BBX 7 9 1 8
BITMAP
3C
7C
46
46
0C
38
60
7E
FE
ENDCHAR
STARTCHAR 00B3
ENCODING 179
SWIDTH 423 0
DWIDTH 10 0
BBX 7 9 1 8
BITMAP
7E
7E
0C
18
1E
06
C6
7E
3C
ENDCHAR
STARTCHAR 00B4
ENCODING 180
SWIDTH 254 0
DWIDTH 6 0
BBX 4 3 1 13
BITMAP
30
60
C0
ENDCHAR
STARTCHAR 00B5
ENCODING 181
SWIDTH 550 0
DWIDTH 13 0
BBX 10 17 2 -5
BITMAP
C1C0
C1C0
C1C0
C1C0
C1C0
C1C0
C1C0
C1C0
C1C0
E1C0
FFC0
FCC0
C000
C000
C000
C000
C000
ENDCHAR
STARTCHAR 00B6
ENCODING 182
SWIDTH 635 0
DWIDTH 15 0
BBX 13 22 1 -5
BITMAP
1FF8
7FF8
FE60
FE60
FE60
FE60
FE60
7E60
3E60
0660
0660
0660
0660
0660
0660
0660
0660
0660
0660
0660
0660
0660
ENDCHAR
STARTCHAR 00B7
ENCODING 183
SWIDTH 296 0
DWIDTH 7 0
BBX 3 3 2 5
BITMAP
E0
E0
C0
ENDCHAR
STARTCHAR 00B8
ENCODING 184
SWIDTH 296 0
DWIDTH 7 0
BBX 5 6 1 -5
BITMAP
30
60
70
18
D8
F0
ENDCHAR
STARTCHAR 00B9
ENCODING 185
SWIDTH 296 0
DWIDTH 7 0
BBX 4 9 1 8
BITMAP
30
70
F0
30
30
30
30
30
30
ENDCHAR
STARTCHAR 00BA
ENCODING 186
SWIDTH 465 0
DWIDTH 11 0
BBX 8 9 2 7
BITMAP
3C
7E
C3
83
83
C3
C6
7E
10
ENDCHAR
STARTCHAR 00BB
ENCODING 187
SWIDTH 465 0
DWIDTH 11 0
BBX 9 10 1 2
BITMAP
CE00
E600
6300
3300
3180
3180
3300
6300
E600
CE00
ENDCHAR
STARTCHAR 00BC
ENCODING 188
SWIDTH 762 0
DWIDTH 18 0
BBX 16 16 1 0
BITMAP
300C
7018
F030
3070
3060
30C0
31C0
318E
330E
071E
0636
0C66
187F
187F
3006
6006
ENDCHAR
STARTCHAR 00BD
ENCODING 189
SWIDTH 762 0
DWIDTH 18 0
BBX 16 16 1 0
BITMAP
300C
7018
F030
3070
3060
30C0
31C0
319E
333F
0633
0633
0C07
180C
1818
303F
603F
ENDCHAR
STARTCHAR 00BE
ENCODING 190
SWIDTH 847 0
DWIDTH 20 0
BBX 18 16 1 0
BITMAP
7E0300
7E0600
0C0C00
380C00
1E1800
063000
C63000
7E6300
3CC700
01CD00
018900
031900
073FC0
063FC0
0C0100
1C0100
ENDCHAR
STARTCHAR 00BF
ENCODING 191
SWIDTH 508 0
DWIDTH 12 0
BBX 11 17 0 -5
BITMAP
0600
0F00
0600
0000
0000
0600
0600
0E00
1C00
3800
7000
6060
E060
60E0
71C0
3FC0
1F00
ENDCHAR
STARTCHAR 00C0
ENCODING 192
SWIDTH 677 0
DWIDTH 16 0
BBX 16 21 0 0
BITMAP
0E00
0700
0180
0000
01C0
03C0
03E0
0360
0660
0670
0E30
0C30
0C38
1818
1FFC
3FFC
300C
300E
7006
6007
E007
ENDCHAR
STARTCHAR 00C1
ENCODING 193
SWIDTH 677 0
DWIDTH 16 0
BBX 16 21 0 0
BITMAP
0070
00E0
01C0
0000
01C0
03C0
03E0
0360
0660
0670
0E30
0C30
0C38
1818
1FFC
3FFC
300C
300E
7006
6007
E007
ENDCHAR
STARTCHAR 00C2
ENCODING 194
SWIDTH 677 0
DWIDTH 16 0
BBX 16 21 0 0
BITMAP
03C0
07E0
0E70
0000
01C0
03C0
03E0
0360
0660
0670
0E30
0C30
0C38
1818
1FFC
3FFC
300C
300E
7006
6007
E007
ENDCHAR
STARTCHAR 00C3
ENCODING 195
SWIDTH 677 0
DWIDTH 16 0
BBX 16 21 0 0
BITMAP
0730
07F0
0CE0
0000
01C0
03C0
03E0
0360
0660
0670
0E30
0C30
0C38
1818
1FFC
3FFC
300C
300E
7006
6007
E007
ENDCHAR
STARTCHAR 00C4
ENCODING 196
SWIDTH 677 0
DWIDTH 16 0
BBX 16 21 0 0
BITMAP
0C18
1C38
0C18
0000
01C0
03C0
03E0
0360
0660
0670
0E30
0C30
0C38
1818
1FFC
3FFC
300C
300E
7006
6007
E007
ENDCHAR
STARTCHAR 00C5
ENCODING 197
SWIDTH 677 0
DWIDTH 16 0
BBX 16 21 0 0
BITMAP
01C0
03E0
0660
0660
03C0
03C0
03E0
0360
0660
0670
0E30
0C30
0C38
1818
1FFC
3FFC
300C
300E
7006
6007
E007
ENDCHAR
STARTCHAR 00C6
ENCODING 198
SWIDTH 1016 0
DWIDTH 24 0
BBX 23 17 0 0
BITMAP
001FFE
003FFE
003600
007600
00E600
00E600
01C600
038600
0387FC
0707FC
0F0600
0FFE00
1FFE00
3C0600
380600
7007FE
E007FE
ENDCHAR
STARTCHAR 00C7
ENCODING 199
SWIDTH 762 0
DWIDTH 18 0
BBX 16 22 1 -5
BITMAP
03E0
0FF8
3C1C
380E
7007
6006
E000
C000
C000
E000
E000
6002
7006
780E
3C1C
1FF8
07E0
0180
01E0
0060
0360
03C0
ENDCHAR
STARTCHAR 00C8
ENCODING 200
SWIDTH 592 0
DWIDTH 14 0
BBX 10 21 2 0
BITMAP
3800
1C00
0E00
0000
FFC0
FFC0
C000
C000
C000
C000
C000
C000
FFC0
FFC0
C000
C000
C000
C000
C000
FFC0
FFC0
ENDCHAR
STARTCHAR 00C9
ENCODING 201
SWIDTH 592 0
DWIDTH 14 0
BBX 10 21 2 0
BITMAP
0700
0600
0C00
0000
FFC0
FFC0
C000
C000
C000
C000
C000
C000
FFC0
FFC0
C000
C000
C000
C000
C000
FFC0
FFC0
ENDCHAR
STARTCHAR 00CA
ENCODING 202
SWIDTH 592 0
DWIDTH 14 0
BBX 10 21 2 0
BITMAP
1E00
3F00
3180
0000
FFC0
FFC0
C000
C000
C000
C000
C000
C000
FFC0
FFC0
C000
C000
C000
C000
C000
FFC0
FFC0
ENDCHAR
STARTCHAR 00CB
ENCODING 203
SWIDTH 592 0
DWIDTH 14 0
BBX 10 21 2 0
BITMAP
3180
7180
7180
0000
FFC0
FFC0
C000
C000
C000
C000
C000
C000
FFC0
FFC0
C000
C000
C000
C000
C000
FFC0
FFC0
ENDCHAR
STARTCHAR 00CC
ENCODING 204
SWIDTH 296 0
DWIDTH 7 0
BBX 5 21 -1 0
BITMAP
E0
30
18
00
18
18
18
18
18
18
18
18
18
18
18
18
18
18
18
18
18
ENDCHAR
STARTCHAR 00CD
ENCODING 205
SWIDTH 296 0
DWIDTH 7 0
BBX 5 21 2 0
BITMAP
38
70
60
00
C0
C0
C0
C0
C0
C0
C0
C0
C0
C0
C0
C0
C0
C0
C0
C0
C0
ENDCHAR
STARTCHAR 00CE
ENCODING 206
SWIDTH 296 0
DWIDTH 7 0
BBX 7 21 0 0
BITMAP
38
6C
C6
00
30
30
30
30
30
30
30
30
30
30
30
30
30
30
30
30
30
ENDCHAR
STARTCHAR 00CF
ENCODING 207
SWIDTH 296 0
DWIDTH 7 0
BBX 6 21 0 0
BITMAP
6C
EC
40
00
30
30
30
30
30
30
30
30
30
30
30
30
30
30
30
30
30
ENDCHAR
STARTCHAR 00D0
ENCODING 208
SWIDTH 720 0
DWIDTH 17 0
BBX 16 17 0 0
BITMAP
3FE0
3FF8
383C
380E
3806
3807
3807
FE03
FE03
3803
3807
3807
3806
380E
383C
3FF8
3FE0
ENDCHAR
STARTCHAR 00D1
ENCODING 209
SWIDTH 762 0
DWIDTH 18 0
BBX 14 21 2 0
BITMAP
0E60
1FE0
19C0
0000
F00C
F00C
F80C
D80C
DC0C
CE0C
C60C
C70C
C38C
C18C
C1CC
C0EC
C06C
C07C
C03C
C03C
C01C
ENDCHAR
STARTCHAR 00D2
ENCODING 210
SWIDTH 804 0
DWIDTH 19 0
BBX 17 21 1 0
BITMAP
070000
038000
018000
000000
03E000
0FF800
3C3E00
380E00
700700
600300
E00380
C00380
C00380
E00380
E00380
600300
700700
380E00
3C1E00
0FF800
03E000
ENDCHAR
STARTCHAR 00D3
ENCODING 211
SWIDTH 804 0
DWIDTH 19 0
BBX 17 21 1 0
BITMAP
007000
00E000
00C000
000000
03E000
0FF800
3C3E00
380E00
700700
600300
E00380
C00380
C00380
E00380
E00380
600300
700700
380E00
3C1E00
0FF800
03E000
ENDCHAR
STARTCHAR 00D4
ENCODING 212
SWIDTH 804 0
DWIDTH 19 0
BBX 17 21 1 0
BITMAP
01C000
036000
063000
000000
03E000
0FF800
3C3E00
380E00
700700
600300
E00380
C00380
C00380
E00380
E00380
600300
700700
380E00
3C1E00
0FF800
03E000
ENDCHAR
STARTCHAR 00D5
ENCODING 213
SWIDTH 804 0
DWIDTH 19 0
BBX 17 21 1 0
BITMAP
039000
07F000
04F000
000000
03E000
0FF800
3C3E00
380E00
700700
600300
E00380
C00380
C00380
E00380
E00380
600300
700700
380E00
3C1E00
0FF800
03E000
ENDCHAR
STARTCHAR 00D6
ENCODING 214
SWIDTH 804 0
DWIDTH 19 0
BBX 17 21 1 0
BITMAP
0C1800
1C1C00
0C1800
000000
03E000
0FF800
3C3E00
380E00
700700
600300
E00380
C00380
C00380
E00380
E00380
600300
700700
380E00
3C1E00
0FF800
03E000
ENDCHAR
STARTCHAR 00D7
ENCODING 215
SWIDTH 550 0
DWIDTH 13 0
BBX 10 11 1 1
BITMAP
4040
E0C0
7180
3B00
1E00
0E00
1F00
3B00
7180
E0C0
4040
ENDCHAR
STARTCHAR 00D8
ENCODING 216
SWIDTH 804 0
DWIDTH 19 0
BBX 17 19 1 -1
BITMAP
000200
03E300
0FFE00
3C1E00
381E00
703F00
603300
E06380
C0E380
C1C380
E38380
E30380
660300
7E0700
3C0E00
3C1E00
3FF800
63E000
200000
ENDCHAR
STARTCHAR 00D9
ENCODING 217
SWIDTH 677 0
DWIDTH 16 0
BBX 12 21 2 0
BITMAP
1C00
0C00
0600
0000
C030
C030
C030
C030
C030
C030
C030
C030
C030
C030
C030
C030
C070
E060
70E0
3FC0
1F80
ENDCHAR
STARTCHAR 00DA
ENCODING 218
SWIDTH 677 0
DWIDTH 16 0
BBX 12 21 2 0
BITMAP
0380
0700
0600
0000
C030
C030
C030
C030
C030
C030
C030
C030
C030
C030
C030
C030
C070
E060
70E0
3FC0
1F80
ENDCHAR
STARTCHAR 00DB
ENCODING 219
SWIDTH 677 0
DWIDTH 16 0
BBX 12 21 2 0
BITMAP
0F00
1F80
39C0
0000
C030
C030
C030
C030
C030
C030
C030
C030
C030
C030
C030
C030
C070
E060
70E0
3FC0
1F80
ENDCHAR
STARTCHAR 00DC
ENCODING 220
SWIDTH 677 0
DWIDTH 16 0
BBX 12 21 2 0
BITMAP
30C0
39C0
31C0
0000
C030
C030
C030
C030
C030
C030
C030
C030
C030
C030
C030
C030
C070
E060
70E0
3FC0
1F80
ENDCHAR
STARTCHAR 00DD
ENCODING 221
SWIDTH 635 0
DWIDTH 15 0
BBX 13 21 1 0
BITMAP
0180
0300
0600
0000
C038
E030
6070
7060
38E0
18C0
1D80
0F80
0F00
0700
0600
0600
0600
0600
0600
0600
0600
ENDCHAR
STARTCHAR 00DE
ENCODING 222
SWIDTH 592 0
DWIDTH 14 0
BBX 11 17 2 0
BITMAP
C000
C000
C000
FF80
FFC0
C0E0
C060
C060
C060
C060
C0E0
FFC0
FF80
C000
C000
C000
C000
ENDCHAR
STARTCHAR 00DF
ENCODING 223
SWIDTH 550 0
DWIDTH 13 0
BBX 11 17 2 0
BITMAP
1F00
7F80
61C0
E0C0
C0C0
C1C0
C380
C700
CE00
CE00
CF80
C7C0
C1E0
C860
D8E0
CFC0
C780
ENDCHAR
STARTCHAR 00E0
ENCODING 224
SWIDTH 508 0
DWIDTH 12 0
BBX 10 17 1 0
BITMAP
3800
1800
1C00
0C00
0000
1F00
7F80
61C0
E0C0
01C0
1FC0
7CC0
E0C0
C1C0
E1C0
7EC0
3CC0
ENDCHAR
STARTCHAR 00E1
ENCODING 225
SWIDTH 508 0
DWIDTH 12 0
BBX 10 17 1 0
BITMAP
0380
0700
0600
0C00
0000
1F00
7F80
61C0
E0C0
01C0
1FC0
7CC0
E0C0
C1C0
E1C0
7EC0
3CC0
ENDCHAR
STARTCHAR 00E2
ENCODING 226
SWIDTH 508 0
DWIDTH 12 0
BBX 10 16 1 0
BITMAP
0E00
1F00
3380
0000
1F00
7F80
61C0
E0C0
01C0
1FC0
7CC0
E0C0
C1C0
E1C0
7EC0
3CC0
ENDCHAR
STARTCHAR 00E3
ENCODING 227
SWIDTH 508 0
DWIDTH 12 0
BBX 10 16 1 0
BITMAP
3980
3F80
2700
0000
1F00
7F80
61C0
E0C0
01C0
1FC0
7CC0
E0C0
C1C0
E1C0
7EC0
3CC0
ENDCHAR
STARTCHAR 00E4
ENCODING 228
SWIDTH 508 0
DWIDTH 12 0
BBX 10 16 1 0
BITMAP
3380
3380
0000
0000
1F00
7F80
61C0
E0C0
01C0
1FC0
7CC0
E0C0
C1C0
E1C0
7EC0
3CC0
ENDCHAR
STARTCHAR 00E5
ENCODING 229
SWIDTH 508 0
DWIDTH 12 0
BBX 10 18 1 0
BITMAP
0E00
1F00
1300
1F00
0E00
0000
1F00
7F80
61C0
E0C0
01C0
1FC0
7CC0
E0C0
C1C0
E1C0
7EC0
3CC0
ENDCHAR
STARTCHAR 00E6
ENCODING 230
SWIDTH 889 0
DWIDTH 21 0
BBX 19 12 1 0
BITMAP
1F1F00
3FBF80
61F1C0
E0E0C0
00C0E0
1FFFE0
7FFFE0
E0C000
C1E0E0
E1F0C0
7F3F80
3E1F00
ENDCHAR
STARTCHAR 00E7
ENCODING 231
SWIDTH 550 0
DWIDTH 13 0
BBX 11 17 1 -5
BITMAP
1F00
3FC0
71C0
E0E0
C000
C000
C000
C000
E040
70C0
3FC0
1F00
0400
0F00
0300
1B00
0E00
ENDCHAR
STARTCHAR 00E8
ENCODING 232
SWIDTH 550 0
DWIDTH 13 0
BBX 11 17 1 0
BITMAP
3800
1800
0C00
0400
0000
1F00
3F80
71C0
60C0
C0E0
FFE0
FFE0
C000
E060
70C0
3FC0
1F00
ENDCHAR
STARTCHAR 00E9
ENCODING 233
SWIDTH 550 0
DWIDTH 13 0
BBX 11 17 1 0
BITMAP
0380
0300
0600
0600
0000
1F00
3F80
71C0
60C0
C0E0
FFE0
FFE0
C000
E060
70C0
3FC0
1F00
ENDCHAR
STARTCHAR 00EA
ENCODING 234
SWIDTH 550 0
DWIDTH 13 0
BBX 11 16 1 0
BITMAP
0E00
1B00
3180
0000
1F00
3F80
71C0
60C0
C0E0
FFE0
FFE0
C000
E060
70C0
3FC0
1F00
ENDCHAR
STARTCHAR 00EB
ENCODING 235
SWIDTH 550 0
DWIDTH 13 0
BBX 11 16 1 0
BITMAP
3980
3180
0000
0000
1F00
3F80
71C0
60C0
C0E0
FFE0
FFE0
C000
E060
70C0
3FC0
1F00
ENDCHAR
STARTCHAR 00EC
ENCODING 236
SWIDTH 254 0
DWIDTH 6 0
BBX 4 17 0 0
BITMAP
C0
E0
60
30
00
30
30
30
30
30
30
30
30
30
30
30
30
ENDCHAR
STARTCHAR 00ED
ENCODING 237
SWIDTH 254 0
DWIDTH 6 0
BBX 4 17 2 0
BITMAP
30
70
60
C0
00
C0
C0
C0
C0
C0
C0
C0
C0
C0
C0
C0
C0
ENDCHAR
STARTCHAR 00EE
ENCODING 238
SWIDTH 254 0
DWIDTH 6 0
BBX 6 17 0 0
BITMAP
78
7C
CC
00
00
30
30
30
30
30
30
30
30
30
30
30
30
ENDCHAR
STARTCHAR 00EF
ENCODING 239
SWIDTH 254 0
DWIDTH 6 0
BBX 6 16 0 1
BITMAP
FC
CC
00
00
30
30
30
30
30
30
30
30
30
30
30
30
ENDCHAR
STARTCHAR 00F0
ENCODING 240
SWIDTH 550 0
DWIDTH 13 0
BBX 12 17 1 0
BITMAP
1000
3FC0
0F80
1F80
19C0
00C0
1FE0
3FE0
70E0
E070
C070
C060
C060
E060
70E0
3FC0
1F00
ENDCHAR
STARTCHAR 00F1
ENCODING 241
SWIDTH 550 0
DWIDTH 13 0
BBX 10 17 2 0
BITMAP
3980
7F80
6700
0000
0000
CF00
FF80
E380
C1C0
C1C0
C1C0
C1C0
C1C0
C1C0
C1C0
C1C0
C1C0
ENDCHAR
STARTCHAR 00F2
ENCODING 242
SWIDTH 592 0
DWIDTH 14 0
BBX 12 17 1 0
BITMAP
3800
1C00
0C00
0600
0000
1F00
3FC0
70E0
E060
C060
C070
C070
C060
E060
70E0
3FC0
1F00
ENDCHAR
STARTCHAR 00F3
ENCODING 243
SWIDTH 592 0
DWIDTH 14 0
BBX 12 17 1 0
BITMAP
0380
0300
0600
0600
0000
1F00
3FC0
70E0
E060
C060
C070
C070
C060
E060
70E0
3FC0
1F00
ENDCHAR
STARTCHAR 00F4
ENCODING 244
SWIDTH 592 0
DWIDTH 14 0
BBX 12 16 1 0
BITMAP
0E00
1F00
3980
0000
1F00
3FC0
70E0
E060
C060
C070
C070
C060
E060
70E0
3FC0
1F00
ENDCHAR
STARTCHAR 00F5
ENCODING 245
SWIDTH 592 0
DWIDTH 14 0
BBX 12 16 1 0
BITMAP
1CC0
3F80
3380
0000
1F00
3FC0
70E0
E060
C060
C070
C070
C060
E060
70E0
3FC0
1F00
ENDCHAR
STARTCHAR 00F6
ENCODING 246
SWIDTH 592 0
DWIDTH 14 0
BBX 12 16 1 0
BITMAP
3980
3980
0000
0000
1F00
3FC0
70E0
E060
C060
C070
C070
C060
E060
70E0
3FC0
1F00
ENDCHAR
STARTCHAR 00F7
ENCODING 247
SWIDTH 550 0
DWIDTH 13 0
BBX 11 11 1 1
BITMAP
0600
0E00
0400
0000
FFE0
FFE0
0000
0000
0E00
0E00
0600
ENDCHAR
STARTCHAR 00F8
ENCODING 248
SWIDTH 592 0
DWIDTH 14 0
BBX 12 14 1 -1
BITMAP
0040
1F60
3FC0
71E0
E1E0
C360
C670
CE70
DC60
F860
70E0
7FC0
FF00
4000
ENDCHAR
STARTCHAR 00F9
ENCODING 249
SWIDTH 550 0
DWIDTH 13 0
BBX 10 17 2 0
BITMAP
7000
3800
1800
0C00
0000
C180
C180
C180
C180
C180
C180
C180
C180
C180
E180
7FC0
3DC0
ENDCHAR
STARTCHAR 00FA
ENCODING 250
SWIDTH 550 0
DWIDTH 13 0
BBX 10 17 2 0
BITMAP
0700
0E00
0C00
1800
0000
C180
C180
C180
C180
C180
C180
C180
C180
C180
E180
7FC0
3DC0
ENDCHAR
STARTCHAR 00FB
ENCODING 251
SWIDTH 550 0
DWIDTH 13 0
BBX 10 17 2 0
BITMAP
1C00
3600
6300
0000
0000
C180
C180
C180
C180
C180
C180
C180
C180
C180
E180
7FC0
3DC0
ENDCHAR
STARTCHAR 00FC
ENCODING 252
SWIDTH 550 0
DWIDTH 13 0
BBX 10 17 2 0
BITMAP
6300
7700
6300
0000
0000
C180
C180
C180
C180
C180
C180
C180
C180
C180
E180
7FC0
3DC0
ENDCHAR
STARTCHAR 00FD
ENCODING 253
SWIDTH 508 0
DWIDTH 12 0
BBX 12 22 0 -5
BITMAP
0180
0380
0300
0600
0000
E030
6060
7060
30E0
38C0
19C0
1D80
0D80
0F00
0700
0700
0600
0E00
0C00
1C00
1800
3800
ENDCHAR
STARTCHAR 00FE
ENCODING 254
SWIDTH 592 0
DWIDTH 14 0
BBX 11 22 2 -5
BITMAP
C000
C000
C000
C000
C000
CF00
FFC0
F1C0
E0E0
C060
C060
C060
C060
E0E0
F1C0
FF80
CF00
C000
C000
C000
C000
C000
ENDCHAR
STARTCHAR 00FF
ENCODING 255
SWIDTH 508 0
DWIDTH 12 0
BBX 12 22 0 -5
BITMAP
1980
19C0
1980
0000
0000
E030
6060
7060
30E0
38C0
19C0
1D80
0D80
0F00
0700
0700
0600
0E00
0C00
1C00
1800
3800
ENDCHAR
STARTCHAR 0131
ENCODING 305
SWIDTH 254 0
DWIDTH 6 0
BBX 2 12 2 0
BITMAP
C0
C0
C0
C0
C0
C0
C0
C0
C0
C0
C0
C0
ENDCHAR
STARTCHAR 0141
ENCODING 321
SWIDTH 550 0
DWIDTH 13 0
BBX 13 17 0 0
BITMAP
3800
3800
3800
3800
3800
3800
3B00
3F00
7C00
F800
B800
3800
3800
3800
3800
3FF8
3FF8
ENDCHAR
STARTCHAR 0142
ENCODING 322
SWIDTH 296 0
DWIDTH 7 0
BBX 7 17 0 0
BITMAP
30
30
30
30
30
30
30
36
3E
F8
F0
30
30
30
30
30
30
ENDCHAR
STARTCHAR 0152
ENCODING 338
SWIDTH 1143 0
DWIDTH 27 0
BBX 25 17 1 0
BITMAP
03E3FF80
0FFFFF80
381F8000
30078000
60038000
E0038000
E0038000
C003FF00
C003FF00
E0038000
E0038000
60038000
70078000
30078000
3C1F8000
0FFBFF80
03E3FF80
ENDCHAR
STARTCHAR 0153
ENCODING 339
SWIDTH 931 0
DWIDTH 22 0
BBX 20 12 1 0
BITMAP
1F0780
3FDFE0
71F860
E07070
C07030
C07FF0
C07FF0
C07000
E07030
70F870
3FDFE0
1F0780
ENDCHAR
STARTCHAR 0160
ENCODING 352
SWIDTH 592 0
DWIDTH 14 0
BBX 12 21 1 0
BITMAP
18C0
1F80
0F00
0000
0F80
3FC0
70E0
6070
6020
6000
7000
7E00
1FC0
03E0
0070
0070
C030
E070
70E0
3FC0
1F80
ENDCHAR
STARTCHAR 0161
ENCODING 353
SWIDTH 465 0
DWIDTH 11 0
BBX 9 17 1 0
BITMAP
6300
3600
3E00
1C00
0000
3E00
7F00
E300
C000
E000
7C00
3F00
0300
C380
E300
7F00
3E00
ENDCHAR
STARTCHAR 0178
ENCODING 376
SWIDTH 635 0
DWIDTH 15 0
BBX 13 21 1 0
BITMAP
18C0
38C0
18C0
0000
C038
E030
6070
7060
38E0
18C0
1D80
0F80
0F00
0700
0600
0600
0600
0600
0600
0600
0600
ENDCHAR
STARTCHAR 017D
ENCODING 381
SWIDTH 635 0
DWIDTH 15 0
BBX 13 21 1 0
BITMAP
18C0
0D80
0700
0000
FFF8
FFF8
0038
0070
00E0
01C0
0180
0380
0700
0E00
1C00
1800
3800
7000
E000
FFF8
FFF8
ENDCHAR
STARTCHAR 017E
ENCODING 382
SWIDTH 465 0
DWIDTH 11 0
BBX 9 17 1 0
BITMAP
6300
3600
1C00
0000
0000
FF80
FF80
0380
0700
0E00
1C00
1800
3800
7000
E000
FF80
FF80
ENDCHAR
STARTCHAR 0192
ENCODING 402
SWIDTH 465 0
DWIDTH 11 0
BBX 12 22 -1 -4
BITMAP
0070
01F0
01C0
0180
0380
0300
1FE0
1FE0
0300
0700
0600
0600
0600
0600
0E00
0E00
0C00
0C00
0C00
1C00
F800
F000
ENDCHAR
STARTCHAR 02C6
ENCODING 710
SWIDTH 381 0
DWIDTH 9 0
BBX 7 3 1 13
BITMAP
38
6C
C6
ENDCHAR
STARTCHAR 02C7
ENCODING 711
SWIDTH 381 0
DWIDTH 9 0
BBX 7 3 1 13
BITMAP
C6
6C
38
ENDCHAR
STARTCHAR 02C9
ENCODING 713
SWIDTH 338 0
DWIDTH 8 0
BBX 6 2 1 14
BITMAP
FC
FC
ENDCHAR
STARTCHAR 02D8
ENCODING 728
SWIDTH 381 0
DWIDTH 9 0
BBX 7 3 1 13
BITMAP
C6
FC
78
ENDCHAR
STARTCHAR 02D9
ENCODING 729
SWIDTH 169 0
DWIDTH 4 0
BBX 3 3 1 13
BITMAP
C0
E0
C0
ENDCHAR
STARTCHAR 02DA
ENCODING 730
SWIDTH 296 0
DWIDTH 7 0
BBX 5 5 1 13
BITMAP
70
D8
88
D8
F0
ENDCHAR
STARTCHAR 02DB
ENCODING 731
SWIDTH 254 0
DWIDTH 6 0
BBX 4 5 1 -5
BITMAP
60
C0
C0
F0
70
ENDCHAR
STARTCHAR 02DC
ENCODING 732
SWIDTH 381 0
DWIDTH 9 0
BBX 7 3 1 13
BITMAP
76
FE
9C
ENDCHAR
STARTCHAR 02DD
ENCODING 733
SWIDTH 381 0
DWIDTH 9 0
BBX 6 3 1 13
BITMAP
6C
CC
D8
ENDCHAR
STARTCHAR 0394
ENCODING 916
SWIDTH 677 0
DWIDTH 16 0
BBX 15 17 0 0
BITMAP
0380
03C0
03C0
06C0
06E0
0E60
0C70
0C30
1C30
1838
1818
381C
301C
700C
600E
7FFE
FFFE
ENDCHAR
STARTCHAR 03A9
ENCODING 937
SWIDTH 804 0
DWIDTH 19 0
BBX 17 17 1 0
BITMAP
07F000
1FF800
3C1E00
700F00
600700
E00300
E00380
C00380
C00380
E00380
600300
700700
380E00
1C1C00
0E7800
FE7F80
FE7F80
ENDCHAR
STARTCHAR 03BC
ENCODING 956
SWIDTH 550 0
DWIDTH 13 0
BBX 10 17 2 -5
BITMAP
C1C0
C1C0
C1C0
C1C0
C1C0
C1C0
C1C0
C1C0
C1C0
E1C0
FFC0
FCC0
C000
C000
C000
C000
C000
ENDCHAR
STARTCHAR 03C0
ENCODING 960
SWIDTH 635 0
DWIDTH 15 0
BBX 12 12 1 0
BITMAP
FFF0
FFF0
30C0
30C0
30C0
30C0
30C0
30C0
30C0
30C0
30F0
3070
ENDCHAR
STARTCHAR 2007
ENCODING 8199
SWIDTH 635 0
DWIDTH 15 0
BBX 0 0 0 0
BITMAP
ENDCHAR
STARTCHAR 2008
ENCODING 8200
SWIDTH 296 0
DWIDTH 7 0
BBX 0 0 0 0
BITMAP
ENDCHAR
STARTCHAR 200B
ENCODING 8203
SWIDTH 0 0
DWIDTH 0 0
BBX 0 0 0 0
BITMAP
ENDCHAR
STARTCHAR 2013
ENCODING 8211
SWIDTH 635 0
DWIDTH 15 0
BBX 12 2 2 6
BITMAP
FFF0
FFF0
ENDCHAR
STARTCHAR 2014
ENCODING 8212
SWIDTH 1101 0
DWIDTH 26 0
BBX 22 2 2 6
BITMAP
FFFFFC
FFFFFC
ENDCHAR
STARTCHAR 2018
ENCODING 8216
SWIDTH 211 0
DWIDTH 5 0
BBX 3 6 1 11
BITMAP
20
40
C0
E0
E0
E0
ENDCHAR
STARTCHAR 2019
ENCODING 8217
SWIDTH 211 0
DWIDTH 5 0
BBX 3 6 1 11
BITMAP
E0
E0
E0
20
60
80
ENDCHAR
STARTCHAR 201A
ENCODING 8218
SWIDTH 211 0
DWIDTH 5 0
BBX 3 6 1 -3
BITMAP
E0
E0
E0
20
60
C0
ENDCHAR
STARTCHAR 201C
ENCODING 8220
SWIDTH 381 0
DWIDTH 9 0
BBX 7 6 1 11
BITMAP
22
44
CC
EE
EE
EE
ENDCHAR
STARTCHAR 201D
ENCODING 8221
SWIDTH 381 0
DWIDTH 9 0
BBX 7 6 1 11
BITMAP
EE
EE
66
22
46
88
ENDCHAR
STARTCHAR 201E
ENCODING 8222
SWIDTH 381 0
DWIDTH 9 0
BBX 7 6 1 -3
BITMAP
EE
EE
EE
22
66
88
ENDCHAR
STARTCHAR 2020
ENCODING 8224
SWIDTH 381 0
DWIDTH 9 0
BBX 8 13 1 4
BITMAP
18
18
18
18
FF
FF
18
18
18
18
18
18
18
ENDCHAR
STARTCHAR 2021
ENCODING 8225
SWIDTH 423 0
DWIDTH 10 0
BBX 8 17 1 0
BITMAP
18
18
18
18
FF
FF
18
18
18
18
18
FF
FF
18
18
18
18
ENDCHAR
STARTCHAR 2022
ENCODING 8226
SWIDTH 550 0
DWIDTH 13 0
BBX 9 10 2 2
BITMAP
3E00
7F00
FF80
FF80
FF80
FF80
FF80
FF80
7F00
3E00
ENDCHAR
STARTCHAR 2026
ENCODING 8230
SWIDTH 931 0
DWIDTH 22 0
BBX 18 3 2 0
BITMAP
60C1C0
E1E1C0
E0C180
ENDCHAR
STARTCHAR 2030
ENCODING 8240
SWIDTH 1058 0
DWIDTH 25 0
BBX 23 16 1 0
BITMAP
3C0600
7E0C00
631C00
C31800
E33000
7E7000
3C6000
00C000
018E38
019FFC
0331CE
063186
063186
0C31CE
183FFC
180E78
ENDCHAR
STARTCHAR 2039
ENCODING 8249
SWIDTH 296 0
DWIDTH 7 0
BBX 5 10 1 2
BITMAP
18
30
60
60
C0
C0
60
60
30
18
ENDCHAR
STARTCHAR 203A
ENCODING 8250
SWIDTH 296 0
DWIDTH 7 0
BBX 4 10 1 2
BITMAP
C0
E0
60
30
30
30
30
60
E0
C0
ENDCHAR
STARTCHAR 2042
ENCODING 8258
SWIDTH 847 0
DWIDTH 20 0
BBX 18 17 1 0
BITMAP
00C000
00C000
06D000
07F800
01C000
01E000
033000
000000
000000
000000
180600
180600
FF3FC0
7C0F00
3C0F00
6C1980
440900
ENDCHAR
STARTCHAR 2044
ENCODING 8260
SWIDTH 550 0
DWIDTH 13 0
BBX 13 16 0 0
BITMAP
0018
0030
0060
0060
00C0
0180
0180
0300
0600
0E00
0C00
1800
3800
3000
6000
E000
ENDCHAR
STARTCHAR 2051
ENCODING 8273
SWIDTH 423 0
DWIDTH 10 0
BBX 8 17 1 0
BITMAP
18
18
DB
FF
18
3C
66
00
00
00
18
18
FF
3C
3C
66
24
ENDCHAR
STARTCHAR 2070
ENCODING 8304
SWIDTH 423 0
DWIDTH 10 0
BBX 8 9 1 8
BITMAP
3C
7E
66
43
C3
C3
66
7E
3C
ENDCHAR
STARTCHAR 2074
ENCODING 8308
SWIDTH 465 0
DWIDTH 11 0
BBX 8 8 1 9
BITMAP
0E
1E
36
26
66
FF
FF
06
ENDCHAR
STARTCHAR 2075
ENCODING 8309
SWIDTH 423 0
DWIDTH 10 0
BBX 6 9 2 8
BITMAP
7C
FC
C0
F8
DC
0C
8C
FC
78
ENDCHAR
STARTCHAR 2076
ENCODING 8310
SWIDTH 423 0
DWIDTH 10 0
BBX 7 9 1 8
BITMAP
1E
3E
60
5C
FE
C2
62
7E
3C
ENDCHAR
STARTCHAR 2077
ENCODING 8311
SWIDTH 423 0
DWIDTH 10 0
BBX 7 9 1 8
BITMAP
FE
FE
0C
0C
18
18
30
30
30
ENDCHAR
STARTCHAR 2078
ENCODING 8312
SWIDTH 423 0
DWIDTH 10 0
BBX 7 9 1 8
BITMAP
3C
7E
46
7E
3C
66
C6
7E
3C
ENDCHAR
STARTCHAR 2079
ENCODING 8313
SWIDTH 423 0
DWIDTH 10 0
BBX 7 9 1 8
BITMAP
3C
7E
C6
C6
7E
3A
06
7C
78
ENDCHAR
STARTCHAR 2080
ENCODING 8320
SWIDTH 423 0
DWIDTH 10 0
BBX 8 9 1 -2
BITMAP
3C
7E
66
43
C3
C3
66
7E
3C
ENDCHAR
STARTCHAR 2081
ENCODING 8321
SWIDTH 296 0
DWIDTH 7 0
BBX 4 9 1 -2
BITMAP
30
70
F0
30
30
30
30
30
30
ENDCHAR
STARTCHAR 2082
ENCODING 8322
SWIDTH 381 0
DWIDTH 9 0
BBX 7 9 1 -2
BITMAP
3C
7C
46
06
1C
30
60
7E
FE
ENDCHAR
STARTCHAR 2083
ENCODING 8323
SWIDTH 423 0
DWIDTH 10 0
BBX 7 9 1 -2
BITMAP
7E
7E
0C
18
1E
06
C6
7E
3C
ENDCHAR
STARTCHAR 2084
ENCODING 8324
SWIDTH 465 0
DWIDTH 11 0
BBX 8 9 1 -2
BITMAP
0E
1E
16
36
66
FF
FF
06
06
ENDCHAR
STARTCHAR 2085
ENCODING 8325
SWIDTH 423 0
DWIDTH 10 0
BBX 6 9 2 -2
BITMAP
7C
FC
C0
F8
DC
0C
8C
FC
78
ENDCHAR
STARTCHAR 2086
ENCODING 8326
SWIDTH 423 0
DWIDTH 10 0
BBX 7 9 1 -2
BITMAP
1E
3E
60
5C
FE
C2
62
7E
3C
ENDCHAR
STARTCHAR 2087
ENCODING 8327
SWIDTH 423 0
DWIDTH 10 0
BBX 7 9 1 -2
BITMAP
FE
FE
0C
0C
18
18
30
30
30
ENDCHAR
STARTCHAR 2088
ENCODING 8328
SWIDTH 423 0
DWIDTH 10 0
BBX 7 9 1 -2
BITMAP
3C
7E
46
7E
3C
66
C6
7E
3C
ENDCHAR
STARTCHAR 2089
ENCODING 8329
SWIDTH 423 0
DWIDTH 10 0
BBX 7 9 1 -2
BITMAP
3C
7E
C6
C6
7E
3A
06
7C
78
ENDCHAR
STARTCHAR 20AC
ENCODING 8364
SWIDTH 677 0
DWIDTH 16 0
BBX 13 16 2 0
BITMAP
03F0
0FF8
1E10
1800
3800
FFE0
FFC0
7000
7000
FF80
FF80
3800
1800
1E18
0FF8
03F0
ENDCHAR
STARTCHAR 2113
ENCODING 8467
SWIDTH 423 0
DWIDTH 10 0
BBX 8 16 1 0
BITMAP
1C
3E
37
73
77
76
76
7E
7C
78
F0
F0
70
30
3E
1E
ENDCHAR
STARTCHAR 2122
ENCODING 8482
SWIDTH 847 0
DWIDTH 20 0
BBX 18 9 1 8
BITMAP
FEE1C0
FEE1C0
30F1C0
30F3C0
30D3C0
30DEC0
30DEC0
30CCC0
30CCC0
ENDCHAR
STARTCHAR 2126
ENCODING 8486
SWIDTH 804 0
DWIDTH 19 0
BBX 17 17 1 0
BITMAP
07F000
1FF800
3C1E00
700F00
600700
E00300
E00380
C00380
C00380
E00380
600300
700700
380E00
1C1C00
0E7800
FE7F80
FE7F80
ENDCHAR
STARTCHAR 2160
ENCODING 8544
SWIDTH 508 0
DWIDTH 12 0
BBX 10 16 1 0
BITMAP
FFC0
FFC0
0C00
0C00
0C00
0C00
0C00
0C00
0C00
0C00
0C00
0C00
0C00
0C00
FFC0
FFC0
ENDCHAR
STARTCHAR 2161
ENCODING 8545
SWIDTH 762 0
DWIDTH 18 0
BBX 16 16 1 0
BITMAP
FFFF
FFFF
0C38
0C38
0C38
0C38
0C38
0C38
0C38
0C38
0C38
0C38
0C38
0C38
FFFF
FFFF
ENDCHAR
STARTCHAR 2162
ENCODING 8546
SWIDTH 1058 0
DWIDTH 25 0
BBX 22 16 1 0
BITMAP
FFFFFC
FFFFFC
0C3060
0C3060
0C3060
0C3060
0C3060
0C3060
0C3060
0C3060
0C3060
0C3060
0C3060
0C3060
FFFFFC
FFFFFC
ENDCHAR
STARTCHAR 2163
ENCODING 8547
SWIDTH 1016 0
DWIDTH 24 0
BBX 21 16 1 0
BITMAP
FFFFF8
FFFFF8
1CC0E0
1CC0C0
1CE0C0
1C61C0
1C6180
1C7180
1C3380
1C3300
1C3B00
1C1F00
1C1E00
1C1E00
FFFFF8
FFFFF8
ENDCHAR
STARTCHAR 2164
ENCODING 8548
SWIDTH 804 0
DWIDTH 19 0
BBX 17 16 1 0
BITMAP
FFFF80
FFFF80
180C00
1C1C00
0C1800
0C1800
0E3800
063000
063000
077000
036000
036000
036000
03C000
FFFF80
FFFF80
ENDCHAR
STARTCHAR 2165
ENCODING 8549
SWIDTH 1016 0
DWIDTH 24 0
BBX 21 16 1 0
BITMAP
FFFFF8
FFFFF8
1C0CC0
1C1CC0
0C18C0
0C18C0
0E38C0
0630C0
0630C0
0730C0
0360C0
0360C0
03E0C0
01C0C0
FFFFF8
FFFFF8
ENDCHAR
STARTCHAR 2166
ENCODING 8550
SWIDTH 1312 0
DWIDTH 31 0
BBX 28 16 1 0
BITMAP
FFFFFFF0
FFFFFFF0
1C0CC180
1C1CC180
0C18C180
0C18C180
0E38C180
0630C180
0630C180
0730C180
0360C180
0360C180
03E0C180
01C0C180
FFFFFFF0
FFFFFFF0
ENDCHAR
STARTCHAR 2167
ENCODING 8551
SWIDTH 1524 0
DWIDTH 36 0
BBX 34 16 1 0
BITMAP
FFFFFFFFC0
FFFFFFFFC0
1C1CC38600
1C1CC38600
0C18C38600
0C18C38600
0E38C38600
0630C38600
0630C38600
0770C38600
0360C38600
0360C38600
0360C38600
03C0C38600
FFFFFFFFC0
FFFFFFFFC0
ENDCHAR
STARTCHAR 2168
ENCODING 8552
SWIDTH 974 0
DWIDTH 23 0
BBX 21 16 1 0
BITMAP
FFFFF8
FFFFF8
1CE1C0
1C6180
1C7380
1C3700
1C1E00
1C1E00
1C1C00
1C1E00
1C3F00
1C7300
1C6380
1CE1C0
FFFFF8
FFFFF8
ENDCHAR
STARTCHAR 2169
ENCODING 8553
SWIDTH 762 0
DWIDTH 18 0
BBX 16 16 1 0
BITMAP
FFFF
FFFF
1C38
0C30
0E70
0760
03C0
03C0
01C0
03C0
07E0
0660
0C30
1C38
FFFF
FFFF
ENDCHAR
STARTCHAR 216C
ENCODING 8556
SWIDTH 635 0
DWIDTH 15 0
BBX 13 16 1 0
BITMAP
FF80
FF80
1C00
1C00
1C00
1C00
1C00
1C00
1C00
1C18
1C18
1C18
1C18
1C18
FFF8
FFF8
ENDCHAR
STARTCHAR 216D
ENCODING 8557
SWIDTH 720 0
DWIDTH 17 0
BBX 15 16 1 0
BITMAP
07EE
1FFE
381E
300E
600E
6000
E000
E000
E000
E000
600E
700E
300E
3C3E
1FFE
07EE
ENDCHAR
STARTCHAR 216E
ENCODING 8558
SWIDTH 720 0
DWIDTH 17 0
BBX 15 16 1 0
BITMAP
FFE0
FFF0
1C38
1C1C
1C0C
1C0E
1C06
1C06
1C06
1C06
1C0E
1C0C
1C1C
1C38
FFF0
FFC0
ENDCHAR
STARTCHAR 216F
ENCODING 8559
SWIDTH 1058 0
DWIDTH 25 0
BBX 23 16 1 0
BITMAP
FE00FE
FE00FE
1F00F0
1F01B0
1F01B0
1F83B0
1D8330
1D8330
1CC630
1CC630
1CEE30
1C6C30
1C6C30
1C3830
FF39FE
FF39FE
ENDCHAR
STARTCHAR 2190
ENCODING 8592
SWIDTH 1016 0
DWIDTH 24 0
BBX 23 9 0 2
BITMAP
080000
180000
380000
7FFFFE
FFFFFE
380000
180000
080000
080000
ENDCHAR
STARTCHAR 2191
ENCODING 8593
SWIDTH 465 0
DWIDTH 11 0
BBX 9 22 1 -3
BITMAP
0800
1C00
1E00
3F00
7F00
FF80
0C00
0C00
0C00
0C00
0C00
0C00
0C00
0C00
0C00
0C00
0C00
0C00
0C00
0C00
0C00
0C00
ENDCHAR
STARTCHAR 2192
ENCODING 8594
SWIDTH 1016 0
DWIDTH 24 0
BBX 22 10 1 2
BITMAP
000080
0000C0
0000E0
0000F0
FFFFFC
FFFFFC
0000F0
0000E0
0000C0
000080
ENDCHAR
STARTCHAR 2193
ENCODING 8595
SWIDTH 465 0
DWIDTH 11 0
BBX 9 23 0 -4
BITMAP
0C00
0C00
0C00
0C00
0C00
0C00
0C00
0C00
0C00
0C00
0C00
0C00
0C00
0C00
0C00
0C00
0C00
FF80
7F80
3F00
1E00
0C00
0800
ENDCHAR
STARTCHAR 2196
ENCODING 8598
SWIDTH 889 0
DWIDTH 21 0
BBX 17 17 1 0
BITMAP
FE0000
FC0000
F80000
F80000
FC0000
CE0000
870000
038000
01C000
00E000
007000
003800
001C00
000E00
000700
000380
000100
ENDCHAR
STARTCHAR 2197
ENCODING 8599
SWIDTH 762 0
DWIDTH 18 0
BBX 17 17 -1 0
BITMAP
003F80
001F80
000F80
000F80
001F80
003980
007080
00E000
01C000
038000
070000
0E0000
1C0000
380000
700000
E00000
400000
ENDCHAR
STARTCHAR 2198
ENCODING 8600
SWIDTH 889 0
DWIDTH 21 0
BBX 17 17 1 0
BITMAP
400000
E00000
700000
380000
1C0000
0E0000
070000
038000
01C000
00E000
007000
003880
001D80
000F80
000780
000F80
001F80
ENDCHAR
STARTCHAR 2199
ENCODING 8601
SWIDTH 762 0
DWIDTH 18 0
BBX 17 17 1 0
BITMAP
000100
000380
000700
000E00
001C00
003800
007000
00E000
01C000
038000
870000
CE0000
DC0000
F80000
F00000
F80000
FC0000
ENDCHAR
STARTCHAR 21A9
ENCODING 8617
SWIDTH 847 0
DWIDTH 20 0
BBX 19 14 0 2
BITMAP
007F00
007FC0
0000C0
000060
000060
080060
180060
3800C0
7FFFC0
FFFF00
780000
180000
080000
080000
ENDCHAR
STARTCHAR 21B0
ENCODING 8624
SWIDTH 762 0
DWIDTH 18 0
BBX 14 17 2 0
BITMAP
1000
3000
7000
FFFC
FFFC
700C
300C
100C
000C
000C
000C
000C
000C
000C
000C
000C
000C
ENDCHAR
STARTCHAR 21B1
ENCODING 8625
SWIDTH 720 0
DWIDTH 17 0
BBX 15 17 1 0
BITMAP
0020
0018
001C
FFFE
FFFE
C01C
C018
C010
C000
C000
C000
C000
C000
C000
C000
C000
C000
ENDCHAR
STARTCHAR 21B2
ENCODING 8626
SWIDTH 762 0
DWIDTH 18 0
BBX 16 17 0 0
BITMAP
0003
0003
0003
0003
0003
0003
0003
0003
0003
0803
1803
7803
FFFF
FFFF
3800
1800
0800
ENDCHAR
STARTCHAR 21B3
ENCODING 8627
SWIDTH 847 0
DWIDTH 20 0
BBX 16 17 2 0
BITMAP
C000
C000
C000
C000
C000
C000
C000
C000
C000
C010
C018
C01C
FFFF
FFFE
001C
0018
0010
ENDCHAR
STARTCHAR 21B4
ENCODING 8628
SWIDTH 804 0
DWIDTH 19 0
BBX 17 17 1 0
BITMAP
FFFC00
FFFC00
000C00
000C00
000C00
000C00
000C00
000C00
000C00
000C00
000C00
000C00
007F80
003F00
001E00
000C00
000800
ENDCHAR
STARTCHAR 21C6
ENCODING 8646
SWIDTH 1101 0
DWIDTH 26 0
BBX 22 17 2 0
BITMAP
080000
180000
780000
FFFFFC
FFFFFC
780000
380000
180000
080000
000020
000030
000038
FFFFFC
FFFFFC
000038
000030
000040
ENDCHAR
STARTCHAR 2202
ENCODING 8706
SWIDTH 592 0
DWIDTH 14 0
BBX 12 17 1 0
BITMAP
3F00
7FC0
41E0
00E0
0070
0030
0FB0
3FF0
70F0
E030
E030
C030
C070
E060
70E0
3FC0
1F00
ENDCHAR
STARTCHAR 2206
ENCODING 8710
SWIDTH 677 0
DWIDTH 16 0
BBX 15 17 0 0
BITMAP
0380
03C0
03C0
06C0
06E0
0E60
0C70
0C30
1C30
1838
1818
381C
301C
700C
600E
7FFE
FFFE
ENDCHAR
STARTCHAR 220F
ENCODING 8719
SWIDTH 677 0
DWIDTH 16 0
BBX 12 17 2 0
BITMAP
FFF0
FFF0
C030
C030
C030
C030
C030
C030
C030
C030
C030
C030
C030
C030
C030
C030
C030
ENDCHAR
STARTCHAR 2211
ENCODING 8721
SWIDTH 550 0
DWIDTH 13 0
BBX 12 17 1 0
BITMAP
FFF0
FFF0
7000
3800
1C00
0E00
0700
0380
0380
0700
0E00
1C00
1800
3000
6000
FFF0
FFF0
ENDCHAR
STARTCHAR 2212
ENCODING 8722
SWIDTH 550 0
DWIDTH 13 0
BBX 10 2 1 6
BITMAP
FFC0
FFC0
ENDCHAR
STARTCHAR 2215
ENCODING 8725
SWIDTH 423 0
DWIDTH 10 0
BBX 9 16 0 0
BITMAP
0180
0180
0300
0300
0600
0600
0E00
0C00
1C00
1800
1800
3000
3000
6000
6000
C000
ENDCHAR
STARTCHAR 2219
ENCODING 8729
SWIDTH 296 0
DWIDTH 7 0
BBX 3 3 2 5
BITMAP
E0
E0
C0
ENDCHAR
STARTCHAR 221A
ENCODING 8730
SWIDTH 677 0
DWIDTH 16 0
BBX 16 20 1 0
BITMAP
001F
003F
0038
0030
0070
0060
0060
00E0
E0C0
E0C0
61C0
7180
3180
3380
3B00
1B00
1F00
1E00
0E00
0E00
ENDCHAR
STARTCHAR 221E
ENCODING 8734
SWIDTH 804 0
DWIDTH 19 0
BBX 17 8 1 3
BITMAP
3C1E00
7E3F00
E36380
C1C180
C1C180
E3E380
7E7F00
3C1E00
ENDCHAR
STARTCHAR 222B
ENCODING 8747
SWIDTH 296 0
DWIDTH 7 0
BBX 7 22 0 -5
BITMAP
0E
1E
18
18
18
18
18
18
18
18
18
18
18
18
18
18
18
18
18
38
F0
E0
ENDCHAR
STARTCHAR 2248
ENCODING 8776
SWIDTH 550 0
DWIDTH 13 0
BBX 11 8 1 3
BITMAP
7800
FE20
C7E0
03C0
0000
7C20
FFE0
C7C0
ENDCHAR
STARTCHAR 2260
ENCODING 8800
SWIDTH 592 0
DWIDTH 14 0
BBX 10 11 2 1
BITMAP
00C0
0180
FFC0
FFC0
0E00
0C00
1800
FFC0
FFC0
6000
C000
ENDCHAR
STARTCHAR 2264
ENCODING 8804
SWIDTH 550 0
DWIDTH 13 0
BBX 9 12 2 1
BITMAP
0080
0780
1F00
F800
C000
F000
3E00
0F80
0180
0000
FF80
FF80
ENDCHAR
STARTCHAR 2265
ENCODING 8805
SWIDTH 550 0
DWIDTH 13 0
BBX 9 12 2 1
BITMAP
8000
F000
7C00
0F80
0380
0F80
3E00
F000
C000
0000
FF80
FF80
ENDCHAR
STARTCHAR 22C5
ENCODING 8901
SWIDTH 296 0
DWIDTH 7 0
BBX 3 3 2 5
BITMAP
E0
E0
C0
ENDCHAR
STARTCHAR 24C5
ENCODING 9413
SWIDTH 804 0
DWIDTH 19 0
BBX 17 17 1 0
BITMAP
03F000
0FFC00
1C0E00
300700
63E300
63F180
C31980
C31980
C3F180
C3C180
C30180
630180
630300
300700
1C0E00
0FF800
03E000
ENDCHAR
STARTCHAR 25A0
ENCODING 9632
SWIDTH 931 0
DWIDTH 22 0
BBX 16 17 3 0
BITMAP
FFFF
FFFF
FFFF
FFFF
FFFF
FFFF
FFFF
FFFF
FFFF
FFFF
FFFF
FFFF
FFFF
FFFF
FFFF
FFFF
FFFF
ENDCHAR
STARTCHAR 25A1
ENCODING 9633
SWIDTH 931 0
DWIDTH 22 0
BBX 16 17 3 0
BITMAP
FFFF
FFFF
C003
C003
C003
C003
C003
C003
C003
C003
C003
C003
C003
C003
C003
FFFF
FFFF
ENDCHAR
STARTCHAR 25B2
ENCODING 9650
SWIDTH 847 0
DWIDTH 20 0
BBX 19 17 0 0
BITMAP
004000
006000
00E000
00F000
01F800
01F800
03FC00
03FC00
07FE00
0FFE00
0FFF00
1FFF80
1FFF80
3FFFC0
7FFFC0
7FFFE0
FFFFE0
ENDCHAR
STARTCHAR 25B3
ENCODING 9651
SWIDTH 847 0
DWIDTH 20 0
BBX 19 17 0 0
BITMAP
004000
006000
00E000
00F000
01B800
019800
031C00
030C00
060600
0E0600
0C0300
180380
180180
3001C0
7000C0
7FFFE0
FFFFE0
ENDCHAR
STARTCHAR 25CA
ENCODING 9674
SWIDTH 550 0
DWIDTH 13 0
BBX 11 17 1 0
BITMAP
0E00
0E00
1F00
1B00
3980
31C0
60C0
E0E0
C060
E0E0
60C0
71C0
3980
1B00
1F00
0E00
0E00
ENDCHAR
STARTCHAR 25CB
ENCODING 9675
SWIDTH 847 0
DWIDTH 20 0
BBX 18 17 1 0
BITMAP
03F000
0FFC00
1C0E00
300700
600380
600180
C00180
C001C0
C000C0
C000C0
C00180
600180
600380
300700
1C0E00
0FFC00
03F000
ENDCHAR
STARTCHAR 25CF
ENCODING 9679
SWIDTH 847 0
DWIDTH 20 0
BBX 18 17 1 0
BITMAP
03F000
0FFC00
1FFE00
3FFF00
7FFF80
7FFF80
FFFF80
FFFFC0
FFFFC0
FFFFC0
FFFF80
7FFF80
7FFF80
3FFF00
1FFE00
0FFC00
03F000
ENDCHAR
STARTCHAR 262E
ENCODING 9774
SWIDTH 804 0
DWIDTH 19 0
BBX 17 17 1 0
BITMAP
03F000
0FFC00
18CE00
30C700
60C300
60C180
C0C180
C1C180
C3E180
C7F180
CEF980
7CDD80
78CF00
30C700
18CE00
0FFC00
03F000
ENDCHAR
STARTCHAR 2713
ENCODING 10003
SWIDTH 974 0
DWIDTH 23 0
BBX 21 17 1 0
BITMAP
000010
000038
000070
000060
0000C0
000180
000300
000600
000C00
C01800
E03000
707000
38E000
1DC000
0F8000
070000
020000
ENDCHAR
STARTCHAR 2715
ENCODING 10005
SWIDTH 762 0
DWIDTH 18 0
BBX 16 17 1 0
BITMAP
4002
C007
600E
301C
1838
0C70
06E0
03C0
0180
03C0
06E0
0C70
1838
301C
600E
C007
8002
ENDCHAR
STARTCHAR 2780
ENCODING 10112
SWIDTH 804 0
DWIDTH 19 0
BBX 17 17 1 0
BITMAP
03F000
0FFC00
180E00
300700
60C300
61C180
C3C180
C0C180
C0C180
C0C180
C0C180
60C180
60C300
300700
1C0E00
0FFC00
03F000
ENDCHAR
STARTCHAR 2781
ENCODING 10113
SWIDTH 804 0
DWIDTH 19 0
BBX 17 17 1 0
BITMAP
03F000
0FFC00
180E00
300700
61C300
63E180
C63180
C07180
C0E180
C18180
C30180
67F180
67F300
300700
1C0E00
0FFC00
03F000
ENDCHAR
STARTCHAR 2782
ENCODING 10114
SWIDTH 804 0
DWIDTH 19 0
BBX 17 17 1 0
BITMAP
03F000
0FFC00
1C0E00
300700
67F300
67F180
C06180
C1C180
C0E180
C03180
C63180
67F180
63C300
300700
180E00
0FFC00
03E000
ENDCHAR
STARTCHAR 2783
ENCODING 10115
SWIDTH 804 0
DWIDTH 19 0
BBX 17 17 1 0
BITMAP
03F000
0FFC00
180E00
300700
60E300
60E180
C1E180
C36180
C66180
C7F180
C7F180
606180
606300
300700
1C0E00
0FFC00
03F000
ENDCHAR
STARTCHAR 2784
ENCODING 10116
SWIDTH 804 0
DWIDTH 19 0
BBX 17 17 1 0
BITMAP
03F000
0FFC00
180E00
300700
63E300
63E180
C20180
C3E180
C77180
C03180
C23180
67E180
63C300
300700
1C0E00
0FFC00
03E000
ENDCHAR
STARTCHAR 2785
ENCODING 10117
SWIDTH 804 0
DWIDTH 19 0
BBX 17 17 1 0
BITMAP
03F000
0FFC00
180E00
300700
61E300
63E180
C60180
C7E180
C7F180
C63180
C63180
67E180
61C300
300700
180E00
0FFC00
03E000
ENDCHAR
STARTCHAR 2786
ENCODING 10118
SWIDTH 804 0
DWIDTH 19 0
BBX 17 17 1 0
BITMAP
03F000
0FFC00
180E00
300700
67F300
67F180
C07180
C06180
C0C180
C18180
C18180
618180
618300
300700
1C0E00
0FFC00
03F000
ENDCHAR
STARTCHAR 2787
ENCODING 10119
SWIDTH 804 0
DWIDTH 19 0
BBX 17 17 1 0
BITMAP
03F000
0FFC00
180E00
300700
61E300
63F180
C63180
C36180
C3E180
C63180
C63180
67F180
63E300
300700
1C0E00
0FFC00
03E000
ENDCHAR
STARTCHAR 2788
ENCODING 10120
SWIDTH 804 0
DWIDTH 19 0
BBX 17 17 1 0
BITMAP
03F000
0FFC00
180E00
300700
61E300
63F180
C63180
C63180
C37180
C3F180
C03180
63E180
63C300
300700
1C0E00
0FFC00
03E000
ENDCHAR
STARTCHAR E000
ENCODING 57344
SWIDTH 804 0
DWIDTH 19 0
BBX 17 17 1 0
BITMAP
1FFF80
1FFF80
180000
180000
180000
180000
180000
180000
180000
180000
180000
180000
FF0000
7E0000
3C0000
180000
080000
ENDCHAR
STARTCHAR E001
ENCODING 57345
SWIDTH 1101 0
DWIDTH 26 0
BBX 24 17 1 0
BITMAP
007E00
01FF00
038000
070000
0E0010
0C0038
18007C
1800FE
F881FF
7F0018
3E0030
1C0030
080070
0000E0
0081C0
00FF80
007E00
ENDCHAR
STARTCHAR E002
ENCODING 57346
SWIDTH 931 0
DWIDTH 22 0
BBX 21 17 1 0
BITMAP
03F000
0FF800
1C0000
380000
700080
6001C0
C003E0
C007F0
C00FF8
C000C0
E00180
600180
700380
380700
1C0E00
0FFC00
03F000
ENDCHAR
STARTCHAR FB00
ENCODING 64256
SWIDTH 677 0
DWIDTH 16 0
BBX 15 18 0 0
BITMAP
0F0E
1F1E
1838
1830
1830
1830
FFFE
FFFE
1830
1830
1830
1830
1830
1830
1830
1830
1830
1830
ENDCHAR
STARTCHAR FB01
ENCODING 64257
SWIDTH 592 0
DWIDTH 14 0
BBX 13 18 0 0
BITMAP
0F30
1F38
1830
1800
1800
1800
FFF0
FFF0
1830
1830
1830
1830
1830
1830
1830
1830
1830
1830
ENDCHAR
STARTCHAR FB02
ENCODING 64258
SWIDTH 592 0
DWIDTH 14 0
BBX 12 17 0 0
BITMAP
0F30
1F30
1830
1830
1830
FFF0
FFF0
1830
1830
1830
1830
1830
1830
1830
1830
1830
1830
ENDCHAR
STARTCHAR FB03
ENCODING 64259
SWIDTH 931 0
DWIDTH 22 0
BBX 20 18 0 0
BITMAP
0F0E30
1F1E70
183870
183000
183000
183000
FFFFF0
FFFFF0
183030
183030
183030
183030
183030
183030
183030
183030
183030
183030
ENDCHAR
STARTCHAR FB04
ENCODING 64260
SWIDTH 931 0
DWIDTH 22 0
BBX 20 17 0 0
BITMAP
0F0E30
1F1E30
183830
183030
183030
FFFFF0
FFFFF0
183030
183030
183030
183030
183030
183030
183030
183030
183030
183030
ENDCHAR
STARTCHAR FEFF
ENCODING 65279
SWIDTH 0 0
DWIDTH 0 0
BBX 0 0 0 0
BITMAP
ENDCHAR
ENDFONT
